<?xml version="1.0" encoding="UTF-8" standalone="no"?>
<!DOCTYPE svg PUBLIC "-//W3C//DTD SVG 1.1//EN" "http://www.w3.org/Graphics/SVG/1.1/DTD/svg11.dtd">
<svg width="100%" height="100%" viewBox="0 0 491 112" version="1.1" xmlns="http://www.w3.org/2000/svg" xmlns:xlink="http://www.w3.org/1999/xlink" xml:space="preserve" xmlns:serif="http://www.serif.com/" style="fill-rule:evenodd;clip-rule:evenodd;stroke-linejoin:round;stroke-miterlimit:2;">
    <g>
        <path d="M97.837,63.721L79.29,63.721C78.232,60.064 77.041,56.805 75.718,53.942C74.394,51.079 73.096,48.806 71.821,47.122C70.545,45.438 69.403,44.127 68.393,43.189C67.382,42.251 66.396,41.517 65.434,40.988L65.217,40.843L61.464,45.173L61.392,53.256C61.392,56.335 61.934,58.609 63.016,60.076C64.098,61.543 65.843,62.373 68.248,62.566L68.248,63.721C64.832,63.625 60.743,63.576 55.98,63.576C50.976,63.576 46.958,63.625 43.927,63.721L43.927,62.566C45.515,62.373 46.778,62.049 47.716,61.592C48.654,61.135 49.4,60.341 49.953,59.21C50.507,58.08 50.783,56.576 50.783,54.7L50.783,24.1C50.783,21.021 50.242,18.748 49.16,17.28C48.077,15.813 46.333,14.983 43.927,14.79L43.927,13.636C47.343,13.732 51.457,13.78 56.268,13.78C61.224,13.78 65.217,13.732 68.248,13.636L68.248,14.79C65.891,15.079 64.159,15.777 63.052,16.883C61.945,17.99 61.392,19.914 61.392,22.657L61.392,42.936L80.878,20.708C82.417,18.928 83.957,17.509 85.497,16.45C87.036,15.392 88.323,14.718 89.358,14.43C90.392,14.141 91.475,14.093 92.605,14.285C93.736,14.478 94.566,14.694 95.095,14.935C95.624,15.175 96.25,15.536 96.971,16.017L96.033,17.533C95.456,18.495 94.638,19.192 93.58,19.626C92.521,20.059 91.462,20.083 90.404,19.698C86.844,18.447 83.716,19.361 81.022,22.44L72.073,32.832L72.434,33.049C73.589,33.53 74.744,34.24 75.898,35.178C77.053,36.116 78.027,37.054 78.821,37.993C79.615,38.931 80.517,40.182 81.527,41.745C82.538,43.309 83.307,44.56 83.837,45.498C84.366,46.436 85.112,47.795 86.074,49.576C87.036,51.308 87.77,52.619 88.275,53.509C88.78,54.399 89.466,55.518 90.332,56.865C91.198,58.212 91.968,59.222 92.641,59.896C93.315,60.569 94.121,61.183 95.059,61.736C95.997,62.289 96.923,62.59 97.837,62.638L97.837,63.721ZM133.4,0.14L125.172,9.594L122.574,9.594L126.976,0.14L133.4,0.14ZM119.326,15.079L119.11,15.151L119.11,34.42L125.822,34.42C128.083,34.42 129.959,34.252 131.451,33.915C132.942,33.578 134.097,33.061 134.915,32.364C135.733,31.666 136.286,30.74 136.575,29.585L137.729,29.585C137.537,33.434 137.537,37.307 137.729,41.204L136.575,41.204C136.334,40.001 135.889,39.027 135.24,38.281C134.59,37.535 133.424,36.922 131.74,36.441C130.055,35.96 127.842,35.719 125.1,35.719L119.11,35.719L119.11,52.968C119.11,56.335 119.856,58.741 121.347,60.185C122.839,61.628 125.22,62.35 128.492,62.35C132.149,62.35 135.131,61.183 137.441,58.849C139.75,56.516 141.795,52.607 143.575,47.122L144.73,47.266C143.912,52.462 143.214,58.885 142.637,66.535L140.977,66.463C140.929,65.838 140.556,65.2 139.859,64.551C139.161,63.901 138.042,63.528 136.503,63.432C136.503,63.432 134.001,63.408 128.997,63.36C122.117,63.264 117.113,63.216 113.986,63.216C112.062,63.216 109.945,63.264 107.635,63.36C105.133,63.408 103.137,63.432 101.645,63.432L101.645,62.277C103.377,62.037 104.736,61.628 105.723,61.051C106.709,60.473 107.419,59.655 107.852,58.597C108.285,57.538 108.501,56.143 108.501,54.411L108.501,22.368C108.501,19.818 107.96,17.918 106.877,16.667C105.795,15.416 104.051,14.694 101.645,14.502L101.645,13.347C103.81,13.395 105.855,13.419 107.779,13.419C110.185,13.419 113.697,13.347 118.316,13.203C126.303,13.01 134.434,12.914 142.709,12.914L146.39,26.842L145.235,27.059C144.465,24.75 143.407,22.741 142.06,21.033C140.712,19.325 139.209,18.014 137.549,17.1C135.889,16.185 134.193,15.512 132.461,15.079C130.729,14.646 128.901,14.43 126.976,14.43C123.945,14.43 121.395,14.646 119.326,15.079ZM205.479,63.721L186.932,63.721C185.873,60.064 184.682,56.805 183.359,53.942C182.036,51.079 180.737,48.806 179.462,47.122C178.187,45.438 177.044,44.127 176.034,43.189C175.023,42.251 174.037,41.517 173.075,40.988L172.859,40.843L169.106,45.173L169.034,53.256C169.034,56.335 169.575,58.609 170.657,60.076C171.74,61.543 173.484,62.373 175.89,62.566L175.89,63.721C172.474,63.625 168.384,63.576 163.621,63.576C158.617,63.576 154.6,63.625 151.569,63.721L151.569,62.566C153.156,62.373 154.419,62.049 155.358,61.592C156.296,61.135 157.042,60.341 157.595,59.21C158.148,58.08 158.425,56.576 158.425,54.7L158.425,24.1C158.425,21.021 157.883,18.748 156.801,17.28C155.718,15.813 153.974,14.983 151.569,14.79L151.569,13.636C154.985,13.732 159.098,13.78 163.91,13.78C168.865,13.78 172.859,13.732 175.89,13.636L175.89,14.79C173.532,15.079 171.8,15.777 170.694,16.883C169.587,17.99 169.034,19.914 169.034,22.657L169.034,42.936L188.519,20.708C190.059,18.928 191.598,17.509 193.138,16.45C194.678,15.392 195.965,14.718 196.999,14.43C198.033,14.141 199.116,14.093 200.247,14.285C201.377,14.478 202.207,14.694 202.736,14.935C203.266,15.175 203.891,15.536 204.613,16.017L203.675,17.533C203.097,18.495 202.279,19.192 201.221,19.626C200.163,20.059 199.104,20.083 198.045,19.698C194.485,18.447 191.358,19.361 188.663,22.44L179.715,32.832L180.075,33.049C181.23,33.53 182.385,34.24 183.54,35.178C184.694,36.116 185.669,37.054 186.462,37.993C187.256,38.931 188.158,40.182 189.169,41.745C190.179,43.309 190.949,44.56 191.478,45.498C192.007,46.436 192.753,47.795 193.715,49.576C194.678,51.308 195.411,52.619 195.916,53.509C196.422,54.399 197.107,55.518 197.973,56.865C198.839,58.212 199.609,59.222 200.283,59.896C200.956,60.569 201.762,61.183 202.7,61.736C203.639,62.289 204.565,62.59 205.479,62.638L205.479,63.721ZM250.856,13.203L254.609,27.203L253.382,27.348C252.564,25.038 251.493,23.042 250.17,21.358C248.847,19.674 247.356,18.363 245.696,17.424C244.036,16.486 242.34,15.801 240.608,15.368C238.876,14.935 237.047,14.718 235.123,14.718C232.092,14.718 229.542,14.959 227.473,15.44L227.257,15.44L227.257,34.709L233.968,34.709C236.229,34.709 238.106,34.541 239.598,34.204C241.089,33.867 242.244,33.35 243.062,32.652C243.88,31.955 244.433,31.028 244.721,29.874L245.876,29.874C245.684,33.723 245.684,37.596 245.876,41.493L244.721,41.493C244.385,39.665 243.399,38.293 241.763,37.379C240.127,36.465 237.288,36.008 233.246,36.008L227.257,36.008L227.257,53.256C227.257,55.325 227.497,57.021 227.978,58.344C228.459,59.668 229.205,60.677 230.216,61.375C231.226,62.073 232.525,62.47 234.113,62.566L234.113,63.721C230.697,63.625 226.607,63.576 221.844,63.576C216.84,63.576 212.823,63.625 209.792,63.721L209.792,62.566C212.149,62.277 213.881,61.58 214.988,60.473C216.095,59.367 216.648,57.442 216.648,54.7L216.648,22.657C216.648,20.107 216.107,18.206 215.024,16.955C213.941,15.705 212.197,14.983 209.792,14.79L209.792,13.636C211.957,13.684 214.002,13.708 215.926,13.708C218.332,13.708 221.844,13.636 226.463,13.491C234.45,13.299 242.58,13.203 250.856,13.203ZM290.315,0.14L282.088,9.594L279.49,9.594L283.892,0.14L290.315,0.14ZM276.242,15.079L276.026,15.151L276.026,34.42L282.737,34.42C284.998,34.42 286.875,34.252 288.366,33.915C289.858,33.578 291.013,33.061 291.831,32.364C292.649,31.666 293.202,30.74 293.49,29.585L294.645,29.585C294.453,33.434 294.453,37.307 294.645,41.204L293.49,41.204C293.25,40.001 292.805,39.027 292.155,38.281C291.506,37.535 290.339,36.922 288.655,36.441C286.971,35.96 284.758,35.719 282.015,35.719L276.026,35.719L276.026,52.968C276.026,56.335 276.771,58.741 278.263,60.185C279.754,61.628 282.136,62.35 285.407,62.35C289.064,62.35 292.047,61.183 294.357,58.849C296.666,56.516 298.711,52.607 300.491,47.122L301.645,47.266C300.828,52.462 300.13,58.885 299.553,66.535L297.893,66.463C297.844,65.838 297.472,65.2 296.774,64.551C296.076,63.901 294.958,63.528 293.418,63.432C293.418,63.432 290.916,63.408 285.913,63.36C279.033,63.264 274.029,63.216 270.902,63.216C268.977,63.216 266.86,63.264 264.551,63.36C262.049,63.408 260.052,63.432 258.561,63.432L258.561,62.277C260.293,62.037 261.652,61.628 262.638,61.051C263.625,60.473 264.334,59.655 264.767,58.597C265.2,57.538 265.417,56.143 265.417,54.411L265.417,22.368C265.417,19.818 264.875,17.918 263.793,16.667C262.71,15.416 260.966,14.694 258.561,14.502L258.561,13.347C260.726,13.395 262.77,13.419 264.695,13.419C267.101,13.419 270.613,13.347 275.232,13.203C283.218,13.01 291.349,12.914 299.625,12.914L303.305,26.842L302.151,27.059C301.381,24.75 300.322,22.741 298.975,21.033C297.628,19.325 296.125,18.014 294.465,17.1C292.805,16.185 291.109,15.512 289.377,15.079C287.645,14.646 285.816,14.43 283.892,14.43C280.861,14.43 278.311,14.646 276.242,15.079ZM355.25,63.504L343.053,63.721L316.928,22.007L316.928,53.256C316.928,56.287 317.421,58.549 318.407,60.04C319.394,61.532 320.969,62.373 323.135,62.566L323.135,63.721C320.537,63.673 318.107,63.648 315.846,63.648C313.584,63.648 311.13,63.673 308.484,63.721L308.484,62.566C310.842,62.277 312.574,61.58 313.68,60.473C314.787,59.367 315.34,57.442 315.34,54.7L315.34,24.1C315.34,21.021 314.799,18.748 313.717,17.28C312.634,15.813 310.89,14.983 308.484,14.79L308.484,13.636C310.313,13.684 312.646,13.708 315.485,13.708C318.612,13.708 321.427,13.684 323.929,13.636L350.198,55.638L350.487,24.1C350.487,21.021 349.945,18.748 348.863,17.28C347.78,15.813 346.036,14.983 343.631,14.79L343.631,13.636C346.614,13.684 349.26,13.708 351.569,13.708C353.831,13.708 356.044,13.684 358.209,13.636L358.209,14.79C356.188,15.079 354.66,15.789 353.626,16.919C352.592,18.05 352.074,19.963 352.074,22.657L351.858,58.164L355.25,63.504ZM399.039,63.721C395.575,63.625 391.461,63.576 386.698,63.576C381.743,63.576 377.749,63.625 374.718,63.721L374.718,62.566C377.076,62.277 378.808,61.58 379.914,60.473C381.021,59.367 381.574,57.442 381.574,54.7L381.574,41.854L370.749,23.956C368.584,20.444 366.876,18.086 365.625,16.883C364.374,15.68 362.979,14.983 361.439,14.79L361.439,13.636C365.961,13.732 370.099,13.78 373.852,13.78C377.605,13.78 382.152,13.732 387.492,13.636L387.492,14.79C383.739,15.175 381.502,16.089 380.78,17.533C380.155,18.736 380.492,20.492 381.791,22.801L391.822,40.049L400.41,24.244C401.95,21.454 402.311,19.265 401.493,17.677C400.723,16.138 398.799,15.175 395.719,14.79L395.719,13.636L397.451,13.636C400.771,13.732 402.864,13.78 403.73,13.78C404.644,13.78 406.617,13.732 409.648,13.636L411.236,13.636L411.236,14.79C409.6,15.031 408.217,15.644 407.086,16.63C405.955,17.617 404.572,19.578 402.936,22.512L392.183,41.493L392.111,53.256C392.111,55.325 392.351,57.021 392.833,58.344C393.314,59.668 394.059,60.677 395.07,61.375C396.08,62.073 397.403,62.494 399.039,62.638L399.039,63.721Z" style="fill-rule:nonzero;"/>
        <path d="M427.191,39.773C425.687,45.567 424.547,50.711 422.197,56.355C418.654,64.866 417.692,64.353 414.751,69.731C417.391,70.236 420.022,70.454 422.734,70.96C425.441,71.464 428.133,72.052 430.799,72.749C439.259,74.959 446.833,78.022 454.412,82.091C457.758,83.888 458.175,84.375 460.34,81.135C461.697,79.104 462.841,76.324 463.79,73.93C465.907,68.584 465.869,69.441 463.887,66.841C465.087,64.252 466.289,62.57 467.339,59.556C476.439,63.248 490.617,54.654 490.385,42.988C490.148,31.113 483.322,25.647 472.366,26.082C471.006,26.136 469.51,26.429 468.368,26.358C466.913,22.584 463.482,19.422 458.766,18.128C456.127,17.404 457.527,16.797 454.305,12.188C444.587,-1.712 427.609,9.631 421.961,22.648C420.252,26.588 416.723,35.922 421.42,38.697C423.668,40.025 425.224,39.366 427.191,39.773ZM443.865,36.355C442.614,38.096 435.418,37.355 433.284,38.157C431.301,43.806 429.042,49.328 426.384,54.463C425.133,56.879 423.868,59.202 422.476,61.51C421.189,63.642 419.246,66.205 418.247,68.184C424.648,69.226 430.002,69.86 436.588,71.634C439.879,72.52 443.183,73.59 446.371,74.795C449.22,75.871 452.538,77.604 455.166,78.472C458.044,76.234 458.89,73.316 459.842,69.313C458.658,67.967 454.502,65.753 452.551,64.833C451.091,64.146 449.696,63.571 448.166,63.01C446.772,62.499 444.152,62.119 443.255,61.203C444.547,59.753 448.811,61.974 450.779,62.618C453.119,63.383 456.638,64.446 458.971,64.636C459.864,63.849 461.283,59.965 462.038,58.519C464.11,54.555 470.116,44.978 473.052,43.088C473.795,45.404 471.617,51.755 470.628,54.368C473.776,54.614 478.486,52.109 480.341,50.428C483.703,47.381 485.04,44.267 484.175,39.514C483.021,33.168 478.654,29.199 471.834,30.379C468.974,30.873 467.913,31.751 466.587,31.971C466.681,29.328 465.514,25.93 463.971,24.372C461.058,21.432 458.285,22.672 455.287,22.697C453.525,19.287 451.002,9.551 442.927,9.785C431.189,10.127 414.628,35.591 424.401,37.005C428.051,37.533 428.416,35.457 433.545,35.448C437.927,35.44 439.257,34.169 443.865,36.355Z" style="fill:rgb(17,156,215);"/>
        <path d="M446.881,83.729C445.324,83.729 443.901,83.266 442.768,82.181C441.652,81.112 441.135,79.753 441.135,78.214C441.135,76.665 441.572,75.218 442.711,74.131C443.85,73.041 445.333,72.641 446.881,72.641C447.896,72.641 448.88,72.847 449.782,73.322C450.661,73.785 451.356,74.453 451.846,75.317C452.352,76.209 452.57,77.194 452.57,78.214C452.57,79.816 452.086,81.289 450.834,82.336C449.7,83.286 448.358,83.729 446.881,83.729Z" style="fill:white;"/>
        <path d="M22.542,66.694L16.931,73.141L15.16,73.141L18.162,66.694L22.542,66.694ZM12.945,76.881L12.797,76.931L12.797,90.071L17.374,90.071C18.916,90.071 20.196,89.956 21.213,89.727C22.23,89.497 23.018,89.144 23.575,88.668C24.133,88.193 24.511,87.561 24.708,86.774L25.495,86.774C25.364,89.399 25.364,92.04 25.495,94.698L24.708,94.698C24.543,93.877 24.24,93.213 23.797,92.704C23.354,92.196 22.558,91.777 21.41,91.449C20.262,91.121 18.752,90.957 16.882,90.957L12.797,90.957L12.797,102.72C12.797,105.016 13.306,106.657 14.323,107.641C15.34,108.626 16.964,109.118 19.195,109.118C21.689,109.118 23.723,108.322 25.298,106.731C26.873,105.139 28.267,102.474 29.481,98.733L30.269,98.832C29.711,102.375 29.235,106.755 28.842,111.972L27.709,111.923C27.677,111.496 27.423,111.062 26.947,110.619C26.471,110.176 25.708,109.922 24.658,109.856C24.658,109.856 22.952,109.839 19.54,109.806C14.848,109.741 11.435,109.708 9.303,109.708C7.991,109.708 6.547,109.741 4.972,109.806C3.266,109.839 1.904,109.856 0.887,109.856L0.887,109.069C2.068,108.904 2.995,108.626 3.668,108.232C4.34,107.838 4.824,107.28 5.12,106.558C5.415,105.837 5.563,104.885 5.563,103.704L5.563,81.852C5.563,80.113 5.193,78.817 4.455,77.964C3.717,77.111 2.528,76.619 0.887,76.487L0.887,75.7C2.363,75.733 3.758,75.749 5.07,75.749C6.711,75.749 9.106,75.7 12.256,75.602C17.702,75.471 23.247,75.405 28.891,75.405L31.401,84.903L30.613,85.051C30.089,83.476 29.367,82.106 28.448,80.942C27.529,79.777 26.504,78.883 25.372,78.259C24.24,77.636 23.084,77.177 21.902,76.881C20.721,76.586 19.474,76.438 18.162,76.438C16.094,76.438 14.356,76.586 12.945,76.881ZM52.552,106.558L52.945,106.952C51.338,109.216 49.189,110.348 46.498,110.348C44.333,110.348 42.602,109.618 41.306,108.158C40.01,106.698 39.362,104.754 39.362,102.326L39.362,86.921L34.539,86.921L46.252,78.308L46.154,85.002L52.601,85.002L50.436,86.921L46.154,86.921L46.154,101.342C46.154,102.293 46.277,103.146 46.523,103.901C46.769,104.655 47.105,105.263 47.532,105.722C47.958,106.181 48.434,106.542 48.959,106.805C49.484,107.067 50.042,107.198 50.632,107.198C51.387,107.198 52.027,106.985 52.552,106.558ZM73.407,106.558L73.801,106.952C72.193,109.216 70.044,110.348 67.354,110.348C65.188,110.348 63.457,109.618 62.161,108.158C60.865,106.698 60.217,104.754 60.217,102.326L60.217,86.921L55.394,86.921L67.108,78.308L67.009,85.002L73.456,85.002L71.291,86.921L67.009,86.921L67.009,101.342C67.009,102.293 67.132,103.146 67.378,103.901C67.624,104.655 67.961,105.263 68.387,105.722C68.814,106.181 69.289,106.542 69.815,106.805C70.339,107.067 70.897,107.198 71.488,107.198C72.243,107.198 72.882,106.985 73.407,106.558ZM82.353,98.388C83.108,101.571 84.33,104.04 86.019,105.796C87.709,107.551 89.62,108.355 91.753,108.207C93.886,108.059 95.936,106.919 97.905,104.787L98.348,105.673C97.199,106.985 95.764,108.117 94.042,109.069C92.319,110.02 90.391,110.496 88.259,110.496C84.715,110.496 81.869,109.323 79.72,106.977C77.571,104.631 76.48,101.538 76.447,97.7C76.414,93.631 77.546,90.448 79.843,88.152C82.041,85.953 84.978,84.854 88.652,84.854C90.129,84.887 91.515,85.166 92.811,85.691C94.107,86.216 95.313,87.003 96.429,88.053C97.544,89.103 98.413,90.383 99.037,91.892L93.722,93.959L82.353,98.388ZM85.798,85.789C84.026,86.15 82.812,87.331 82.156,89.333C81.5,91.334 81.467,93.943 82.058,97.158L93.426,92.877C93.033,91.531 92.442,90.268 91.655,89.087C90.867,87.905 90.145,87.069 89.489,86.577C88.341,85.822 87.11,85.559 85.798,85.789ZM120.532,85.002C121.582,85.002 122.64,85.404 123.707,86.208C124.773,87.012 125.306,87.692 125.306,88.25L124.716,88.742C124.059,89.3 123.288,89.604 122.402,89.653C121.517,89.702 120.696,89.513 119.942,89.087C119.351,88.791 118.728,88.619 118.071,88.57C117.416,88.521 116.661,88.668 115.808,89.013C114.954,89.358 114.118,89.907 113.298,90.662L113.199,102.867C113.199,104.967 113.511,106.476 114.134,107.395C114.758,108.314 115.824,108.888 117.333,109.118L117.333,109.856C114.544,109.79 112.051,109.757 109.852,109.757C107.654,109.757 105.292,109.79 102.765,109.856L102.765,109.118C103.914,108.888 104.808,108.404 105.448,107.666C106.088,106.928 106.407,105.656 106.407,103.851L106.407,94.353C106.407,93.336 106.071,92.515 105.398,91.892C104.726,91.269 103.848,90.941 102.765,90.908L102.765,90.219C106.079,88.939 109.278,87.102 112.362,84.707L113.101,85.15L113.002,89.53L113.002,90.12L113.396,89.677C114.544,88.234 115.758,87.094 117.038,86.257C118.317,85.42 119.482,85.002 120.532,85.002ZM133.907,98.388C134.662,101.571 135.884,104.04 137.574,105.796C139.263,107.551 141.174,108.355 143.307,108.207C145.44,108.059 147.491,106.919 149.459,104.787L149.902,105.673C148.754,106.985 147.318,108.117 145.596,109.069C143.873,110.02 141.946,110.496 139.813,110.496C136.269,110.496 133.423,109.323 131.274,106.977C129.125,104.631 128.034,101.538 128.001,97.7C127.968,93.631 129.1,90.448 131.397,88.152C133.595,85.953 136.532,84.854 140.207,84.854C141.683,84.887 143.069,85.166 144.365,85.691C145.661,86.216 146.867,87.003 147.983,88.053C149.098,89.103 149.968,90.383 150.591,91.892L145.276,93.959L133.907,98.388ZM137.352,85.789C135.58,86.15 134.366,87.331 133.71,89.333C133.054,91.334 133.021,93.943 133.612,97.158L144.981,92.877C144.587,91.531 143.996,90.268 143.209,89.087C142.421,87.905 141.7,87.069 141.043,86.577C139.895,85.822 138.665,85.559 137.352,85.789ZM196.301,102.867C196.301,104.869 196.58,106.353 197.137,107.321C197.695,108.289 198.63,108.888 199.943,109.118L199.943,109.905C197.416,109.806 195.087,109.757 192.954,109.757C190.887,109.757 188.689,109.806 186.359,109.905L186.359,109.118C187.278,108.888 188.032,108.396 188.623,107.641C189.214,106.886 189.509,105.623 189.509,103.851C189.575,99.192 189.624,96.24 189.657,94.993C189.69,93.254 189.517,91.827 189.14,90.711C188.763,89.595 188.262,88.824 187.639,88.398C187.015,87.971 186.285,87.774 185.449,87.807C184.612,87.84 183.775,88.062 182.939,88.472C182.102,88.882 181.257,89.431 180.404,90.12C180.535,90.744 180.601,91.367 180.601,91.991L180.601,102.867C180.601,104.869 180.88,106.353 181.438,107.321C181.995,108.289 182.931,108.888 184.243,109.118L184.243,109.905C181.717,109.806 179.387,109.757 177.254,109.757C175.154,109.757 172.956,109.79 170.66,109.856L170.66,109.118C171.578,108.888 172.333,108.396 172.923,107.641C173.514,106.886 173.809,105.623 173.809,103.851C173.875,99.192 173.924,96.24 173.957,94.993C173.99,93.254 173.817,91.835 173.44,90.736C173.063,89.636 172.571,88.873 171.963,88.447C171.357,88.02 170.643,87.816 169.823,87.832C169.002,87.848 168.174,88.045 167.337,88.422C166.501,88.8 165.672,89.316 164.852,89.973L164.754,102.867C164.754,104.803 165.008,106.263 165.516,107.247C166.025,108.232 166.821,108.855 167.903,109.118L167.903,109.856C165.606,109.79 163.408,109.757 161.308,109.757C159.176,109.757 156.846,109.79 154.32,109.856L154.32,109.118C155.468,108.921 156.362,108.445 157.002,107.69C157.642,106.936 157.962,105.656 157.962,103.851L157.962,94.353C157.962,92.286 156.748,91.137 154.32,90.908L154.32,90.219C157.863,88.873 161.128,87.036 164.114,84.707L164.852,85.15L164.852,88.89C166.066,87.709 167.477,86.766 169.084,86.06C170.692,85.355 172.251,85.002 173.76,85.002C174.318,85.002 174.859,85.051 175.384,85.15C175.909,85.248 176.499,85.428 177.156,85.691C177.812,85.953 178.419,86.388 178.977,86.995C179.535,87.602 179.945,88.349 180.207,89.235C181.454,87.955 182.914,86.929 184.588,86.158C186.261,85.387 187.901,85.002 189.509,85.002C190.001,85.002 190.501,85.035 191.01,85.1C191.519,85.166 192.109,85.346 192.782,85.642C193.454,85.937 194.037,86.323 194.529,86.798C195.021,87.274 195.44,87.963 195.784,88.865C196.129,89.768 196.301,90.809 196.301,91.991L196.301,102.867ZM237.74,75.257L232.13,81.704L230.358,81.704L233.409,75.257L237.74,75.257ZM225.978,98.093C226.732,101.309 227.955,103.794 229.644,105.549C231.334,107.305 233.245,108.101 235.378,107.936C237.511,107.773 239.561,106.624 241.53,104.491L241.973,105.426C240.824,106.706 239.389,107.822 237.667,108.773C235.944,109.725 234.016,110.2 231.884,110.2C228.34,110.2 225.494,109.027 223.345,106.682C221.196,104.336 220.105,101.259 220.072,97.454C220.039,93.385 221.171,90.186 223.468,87.856C225.633,85.691 228.57,84.608 232.277,84.608C234.508,84.641 236.559,85.256 238.429,86.454C240.3,87.651 241.71,89.366 242.662,91.597L237.347,93.713L237.347,93.664L225.978,98.093ZM229.423,85.543C227.651,85.871 226.437,87.044 225.781,89.062C225.125,91.08 225.092,93.697 225.683,96.912L237.051,92.581C236.658,91.236 236.067,89.973 235.28,88.791C234.492,87.61 233.77,86.79 233.114,86.331C231.966,85.543 230.735,85.281 229.423,85.543ZM257.316,94.5C258.333,95.058 259.105,95.493 259.629,95.805C260.155,96.117 260.835,96.584 261.672,97.207C262.509,97.831 263.14,98.413 263.567,98.955C263.993,99.496 264.379,100.177 264.723,100.997C265.068,101.817 265.24,102.703 265.24,103.655C265.24,105.82 264.42,107.543 262.779,108.822C261.139,110.102 258.908,110.742 256.086,110.742L255.102,110.742C253.658,110.742 252.182,110.43 250.672,109.806C249.163,109.183 247.818,108.265 246.637,107.051L247.473,106.312C248.228,105.656 249.106,105.386 250.106,105.5C251.107,105.615 251.903,106.099 252.493,106.952C254.396,109.61 256.562,110.496 258.99,109.61C260.204,108.986 260.811,107.969 260.811,106.558C260.811,105.837 260.655,105.172 260.343,104.565C260.032,103.958 259.523,103.376 258.818,102.818C258.112,102.26 257.489,101.817 256.947,101.489C256.406,101.161 255.61,100.702 254.56,100.111C253.576,99.586 252.838,99.184 252.346,98.905C251.853,98.627 251.222,98.2 250.451,97.626C249.68,97.051 249.097,96.527 248.704,96.051C248.31,95.575 247.965,94.976 247.67,94.254C247.375,93.532 247.227,92.778 247.227,91.991C247.227,90.777 247.555,89.677 248.211,88.693C248.868,87.709 249.713,86.938 250.746,86.38C251.78,85.822 252.846,85.404 253.945,85.125C255.044,84.846 256.103,84.707 257.119,84.707C258.071,84.707 259.031,84.83 259.998,85.076C260.966,85.322 261.951,85.732 262.952,86.306C263.952,86.88 264.846,87.577 265.634,88.398L264.846,89.136C264.092,89.792 263.206,90.071 262.189,89.973C261.172,89.874 260.384,89.399 259.826,88.545C258.219,86.216 256.447,85.231 254.511,85.592C253.658,85.724 252.977,86.101 252.469,86.724C251.96,87.348 251.706,88.119 251.706,89.038C251.706,89.595 251.837,90.128 252.1,90.637C252.362,91.146 252.813,91.638 253.453,92.114C254.093,92.589 254.651,92.975 255.126,93.27C255.602,93.565 256.332,93.975 257.316,94.5ZM302.496,109.265L302.496,110.052C299.839,109.987 296.902,109.954 293.687,109.954C290.274,109.954 287.535,109.987 285.468,110.052L285.468,109.265C287.076,109.069 288.257,108.593 289.011,107.838C289.766,107.083 290.144,105.771 290.144,103.901L290.144,82.049C290.144,80.179 289.766,78.866 289.011,78.112C288.257,77.357 287.076,76.881 285.468,76.684L285.468,75.897C287.896,75.962 290.635,75.995 293.687,75.995C294.376,75.995 296.033,75.93 298.658,75.799C301.25,75.667 302.857,75.602 303.481,75.602C310.502,75.602 314.013,78.424 314.013,84.067C314.013,85.478 313.71,86.847 313.102,88.176C312.496,89.505 311.7,90.662 310.715,91.646C309.731,92.63 308.648,93.557 307.467,94.427C306.286,95.296 305.105,96.026 303.924,96.617C302.742,97.207 301.66,97.716 300.675,98.142C299.691,98.569 298.887,98.881 298.264,99.078L297.378,99.373L297.378,102.917C297.378,105.082 297.772,106.657 298.559,107.641C299.346,108.626 300.659,109.167 302.496,109.265ZM306.68,84.756C306.68,83.017 306.475,81.549 306.065,80.351C305.655,79.153 305.039,78.243 304.219,77.62C303.399,76.996 302.414,76.684 301.266,76.684C299.822,76.684 298.576,76.783 297.526,76.98L297.378,76.98L297.378,98.487C297.509,98.454 297.682,98.405 297.895,98.339C298.108,98.274 298.543,98.077 299.199,97.749C299.855,97.42 300.47,97.051 301.045,96.641C301.619,96.231 302.267,95.649 302.988,94.894C303.71,94.14 304.326,93.319 304.834,92.433C305.343,91.548 305.778,90.432 306.138,89.087C306.499,87.742 306.68,86.298 306.68,84.756ZM324.287,82.147C323.073,82.147 322.08,81.778 321.31,81.04C320.538,80.302 320.153,79.358 320.153,78.21C320.153,76.963 320.522,75.987 321.26,75.282C321.998,74.576 323.007,74.224 324.287,74.224C325.075,74.224 325.78,74.388 326.403,74.716C327.026,75.044 327.511,75.511 327.855,76.118C328.199,76.726 328.372,77.423 328.372,78.21C328.372,79.49 327.97,80.466 327.166,81.139C326.362,81.811 325.403,82.147 324.287,82.147ZM327.978,102.867C327.978,104.179 328.093,105.263 328.323,106.115C328.552,106.969 328.897,107.641 329.356,108.133C329.816,108.626 330.406,108.953 331.128,109.118L331.128,109.856C328.831,109.79 326.633,109.757 324.533,109.757C322.4,109.757 320.071,109.79 317.544,109.856L317.544,109.118C318.693,108.921 319.587,108.445 320.227,107.69C320.867,106.936 321.187,105.656 321.187,103.851L321.187,94.353C321.187,92.286 319.973,91.137 317.544,90.908L317.544,90.219C321.088,88.873 324.353,87.036 327.339,84.707L328.076,85.15L327.978,102.867ZM357.299,87.02C355.953,88.135 354.838,89.431 353.952,90.908L343.026,109.019L345.832,109.019C348.686,109.019 350.917,108.519 352.525,107.518C354.133,106.517 355.297,104.951 356.019,102.818L356.659,102.917L355.675,109.856C352.197,109.79 348.801,109.757 345.487,109.757C341.615,109.757 337.94,109.79 334.463,109.856L334.463,108.921C335.972,107.313 337.317,105.558 338.499,103.655L348.637,86.921L347.308,86.921C344.454,86.954 342.222,87.463 340.615,88.447C339.007,89.431 337.842,90.99 337.12,93.123L336.481,93.024L337.416,86.085C340.926,86.15 344.076,86.183 346.865,86.183C350.343,86.183 353.821,86.15 357.299,86.085L357.299,87.02ZM383.765,87.02C382.42,88.135 381.304,89.431 380.418,90.908L369.492,109.019L372.298,109.019C375.152,109.019 377.383,108.519 378.991,107.518C380.599,106.517 381.764,104.951 382.486,102.818L383.125,102.917L382.141,109.856C378.663,109.79 375.267,109.757 371.953,109.757C368.082,109.757 364.407,109.79 360.929,109.856L360.929,108.921C362.438,107.313 363.783,105.558 364.965,103.655L375.103,86.921L373.774,86.921C370.92,86.954 368.688,87.463 367.081,88.447C365.473,89.431 364.309,90.99 363.587,93.123L362.947,93.024L363.882,86.085C367.392,86.15 370.542,86.183 373.331,86.183C376.809,86.183 380.287,86.15 383.765,86.085L383.765,87.02ZM405.802,75.257L400.191,81.704L398.42,81.704L401.471,75.257L405.802,75.257ZM394.039,98.093C394.794,101.309 396.016,103.794 397.706,105.549C399.396,107.305 401.307,108.101 403.439,107.936C405.572,107.773 407.623,106.624 409.592,104.491L410.035,105.426C408.886,106.706 407.451,107.822 405.728,108.773C404.006,109.725 402.078,110.2 399.945,110.2C396.402,110.2 393.555,109.027 391.406,106.682C389.257,104.336 388.166,101.259 388.133,97.454C388.101,93.385 389.233,90.186 391.529,87.856C393.695,85.691 396.631,84.608 400.339,84.608C402.57,84.641 404.621,85.256 406.491,86.454C408.361,87.651 409.772,89.366 410.723,91.597L405.408,93.713L405.408,93.664L394.039,98.093ZM397.484,85.543C395.713,85.871 394.498,87.044 393.843,89.062C393.186,91.08 393.153,93.697 393.744,96.912L405.113,92.581C404.719,91.236 404.129,89.973 403.341,88.791C402.554,87.61 401.832,86.79 401.176,86.331C400.027,85.543 398.797,85.281 397.484,85.543ZM432.169,85.002C433.219,85.002 434.278,85.404 435.344,86.208C436.41,87.012 436.944,87.692 436.944,88.25L436.353,88.742C435.697,89.3 434.926,89.604 434.04,89.653C433.154,89.702 432.334,89.513 431.579,89.087C430.989,88.791 430.365,88.619 429.709,88.57C429.053,88.521 428.298,88.668 427.445,89.013C426.592,89.358 425.755,89.907 424.935,90.662L424.837,102.867C424.837,104.967 425.148,106.476 425.772,107.395C426.395,108.314 427.461,108.888 428.971,109.118L428.971,109.856C426.182,109.79 423.688,109.757 421.49,109.757C419.291,109.757 416.929,109.79 414.403,109.856L414.403,109.118C415.551,108.888 416.445,108.404 417.085,107.666C417.725,106.928 418.045,105.656 418.045,103.851L418.045,94.353C418.045,93.336 417.708,92.515 417.036,91.892C416.363,91.269 415.485,90.941 414.403,90.908L414.403,90.219C417.717,88.939 420.916,87.102 424,84.707L424.738,85.15L424.64,89.53L424.64,90.12L425.034,89.677C426.182,88.234 427.396,87.094 428.675,86.257C429.955,85.42 431.12,85.002 432.169,85.002ZM446.873,82.147C445.659,82.147 444.667,81.778 443.896,81.04C443.125,80.302 442.739,79.358 442.739,78.21C442.739,76.963 443.108,75.987 443.846,75.282C444.585,74.576 445.594,74.224 446.873,74.224C447.661,74.224 448.366,74.388 448.989,74.716C449.613,75.044 450.097,75.511 450.442,76.118C450.786,76.726 450.958,77.423 450.958,78.21C450.958,79.49 450.556,80.466 449.752,81.139C448.949,81.811 447.989,82.147 446.873,82.147ZM450.565,102.867C450.565,104.179 450.679,105.263 450.909,106.115C451.139,106.969 451.483,107.641 451.942,108.133C452.402,108.626 452.992,108.953 453.714,109.118L453.714,109.856C451.418,109.79 449.219,109.757 447.119,109.757C444.987,109.757 442.657,109.79 440.131,109.856L440.131,109.118C441.279,108.921 442.173,108.445 442.813,107.69C443.453,106.936 443.773,105.656 443.773,103.851L443.773,94.353C443.773,92.286 442.559,91.137 440.131,90.908L440.131,90.219C443.674,88.873 446.939,87.036 449.925,84.707L450.663,85.15L450.565,102.867ZM482.74,106.952L483.183,107.395C482.69,108.215 481.944,108.872 480.943,109.364C479.943,109.856 478.868,110.102 477.72,110.102C476.67,110.102 475.677,109.774 474.742,109.118C473.807,108.461 473.126,107.592 472.7,106.509L472.552,106.214L472.355,106.46C469.927,109.052 467.105,110.348 463.89,110.348C461.954,110.348 460.379,109.749 459.165,108.552C457.951,107.354 457.344,106.001 457.344,104.491C457.344,103.343 457.517,102.359 457.861,101.538C458.206,100.718 458.903,99.873 459.953,99.004C461.003,98.134 462.504,97.281 464.456,96.444C466.408,95.608 468.959,94.681 472.109,93.664L472.257,93.615L472.257,93.467C472.191,90.744 471.822,88.791 471.149,87.61C470.477,86.429 469.402,85.839 467.926,85.839C466.187,85.839 464.825,87.315 463.841,90.268C463.512,91.219 462.881,91.892 461.946,92.286C461.011,92.68 460.084,92.663 459.165,92.237L458.575,91.941C459.362,89.841 460.691,88.16 462.561,86.897C464.431,85.633 466.794,85.002 469.648,85.002C475.915,85.002 479.049,87.627 479.049,92.877L479.049,103.359C479.049,104.639 479.295,105.632 479.786,106.337C480.279,107.042 480.853,107.395 481.509,107.395C481.903,107.395 482.313,107.247 482.74,106.952ZM472.306,105.574L472.404,105.525L472.355,105.377C472.257,104.983 472.207,104.557 472.207,104.097L472.257,94.353L472.011,94.451C469.287,95.304 467.294,96.363 466.031,97.626C464.768,98.889 464.136,100.456 464.136,102.326C464.136,103.802 464.497,104.959 465.219,105.796C465.941,106.632 466.941,107.051 468.221,107.051C469.763,107.051 471.125,106.558 472.306,105.574Z" style="fill-rule:nonzero;"/>
    </g>
</svg>
